<svg width="32" height="32" viewBox="0 0 32 32" fill="none" xmlns="http://www.w3.org/2000/svg">
<path fill-rule="evenodd" clip-rule="evenodd" d="M17.4137 6.22913C21.838 6.22913 25.0908 9.69061 25.0908 13.9606V19.1149C25.0908 19.6487 24.6425 20.0813 24.0895 20.0813H7.40006C6.84703 20.0813 6.39868 19.6487 6.39868 19.1149V13.9606C6.39868 9.69061 9.65153 6.22913 14.0758 6.22913H17.4137ZM15.7448 14.407C14.2239 14.407 12.991 13.1741 12.991 11.6532C12.991 10.1323 14.2239 8.89942 15.7448 8.89942C17.2656 8.89942 18.4985 10.1323 18.4985 11.6532C18.4985 13.1741 17.2656 14.407 15.7448 14.407Z" fill="#E33E3F"/>
<path d="M25.0908 23.1821C25.0908 22.6159 24.6425 22.1569 24.0895 22.1569H7.40006C6.84703 22.1569 6.39868 22.6159 6.39868 23.1821V27.6246C6.39868 28.5683 7.1459 29.3334 8.06763 29.3334H23.4219C24.3436 29.3334 25.0908 28.5683 25.0908 27.6246V23.1821Z" fill="#E33E3F"/>
<path fill-rule="evenodd" clip-rule="evenodd" d="M17.3131 4.67616C16.8176 4.64954 16.2949 4.6357 15.7449 4.6357C15.1952 4.6357 14.6727 4.64953 14.1774 4.67612C13.3971 4.69905 12.5119 4.77668 11.8866 4.8858C11.6506 4.92697 11.5326 4.94756 11.4708 4.87448C11.409 4.8014 11.4432 4.70452 11.5116 4.51077C11.9731 3.20363 13.2139 2.66638 15.742 2.66638C18.2708 2.66638 19.5106 3.20186 19.9758 4.51259C20.0459 4.70997 20.0809 4.80866 20.0186 4.88194C19.9563 4.95522 19.8358 4.93337 19.5947 4.88968C18.9717 4.77676 18.0897 4.69911 17.3131 4.67616Z" fill="#E33E3F"/>
</svg>
