<svg width="32" height="32" viewBox="0 0 32 32" fill="none" xmlns="http://www.w3.org/2000/svg">
<g clip-path="url(#clip0_764_9300)">
<mask id="mask0_764_9300" style="mask-type:luminance" maskUnits="userSpaceOnUse" x="0" y="0" width="32" height="32">
<path d="M32 0H0V32H32V0Z" fill="white"/>
</mask>
<g mask="url(#mask0_764_9300)">
<path d="M25.1309 0H6.86912C3.07541 0 0 3.07541 0 6.86912V25.1309C0 28.9246 3.07541 32 6.86912 32H25.1309C28.9246 32 32 28.9246 32 25.1309V6.86912C32 3.07541 28.9246 0 25.1309 0Z" fill="#AB9FF2"/>
<path fill-rule="evenodd" clip-rule="evenodd" d="M13.7925 20.795C12.5361 22.7203 10.4306 25.1567 7.62906 25.1567C6.30469 25.1567 5.03125 24.6115 5.03125 22.2432C5.03125 16.2118 13.2661 6.875 20.9068 6.875C25.2534 6.875 26.9853 9.89071 26.9853 13.3153C26.9853 17.7111 24.1328 22.7373 21.2973 22.7373C20.3974 22.7373 19.9559 22.2432 19.9559 21.4595C19.9559 21.2551 19.9899 21.0336 20.0578 20.795C19.09 22.4477 17.2223 23.9811 15.4734 23.9811C14.2 23.9811 13.5548 23.1803 13.5548 22.0558C13.5548 21.6469 13.6397 21.221 13.7925 20.795ZM24.1163 13.1965C24.1163 14.1944 23.5276 14.6934 22.869 14.6934C22.2004 14.6934 21.6216 14.1944 21.6216 13.1965C21.6216 12.1986 22.2004 11.6996 22.869 11.6996C23.5276 11.6996 24.1163 12.1986 24.1163 13.1965ZM20.3742 13.1965C20.3742 14.1945 19.7854 14.6934 19.1268 14.6934C18.4582 14.6934 17.8794 14.1945 17.8794 13.1965C17.8794 12.1986 18.4582 11.6997 19.1268 11.6997C19.7854 11.6997 20.3742 12.1986 20.3742 13.1965Z" fill="#FFFDF8"/>
</g>
</g>
<defs>
<clipPath id="clip0_764_9300">
<rect width="32" height="32" fill="white"/>
</clipPath>
</defs>
</svg>
