<svg width="32" height="32" viewBox="0 0 32 32" fill="none" xmlns="http://www.w3.org/2000/svg">
<g clip-path="url(#clip0_2087_3875)">
<rect width="32" height="32" fill="white"/>
<path d="M26.6354 17.2993C27.45 15.4733 23.4227 10.3716 19.5751 8.24622C17.15 6.59967 14.6229 6.82587 14.1111 7.54883C12.9879 9.13545 17.8304 10.4798 21.069 12.0486C20.3727 12.3521 19.7167 12.8965 19.3309 13.5927C18.1236 12.2702 15.4736 11.1312 12.3641 12.0486C10.2687 12.6669 8.52722 14.1244 7.85415 16.3258C7.69061 16.2529 7.50954 16.2124 7.31904 16.2124C6.59055 16.2124 6 16.8049 6 17.5358C6 18.2668 6.59055 18.8593 7.31904 18.8593C7.45406 18.8593 7.87625 18.7684 7.87625 18.7684L14.6229 18.8175C11.9248 23.1122 9.79246 23.74 9.79246 24.4841C9.79246 25.2281 11.8327 25.0265 12.5988 24.7491C16.266 23.4215 20.2047 19.2837 20.8806 18.0926C23.7189 18.4479 26.1042 18.4899 26.6354 17.2993Z" fill="url(#paint0_linear_2087_3875)"/>
<path fill-rule="evenodd" clip-rule="evenodd" d="M21.0687 12.0488C21.0689 12.0489 21.0691 12.0491 21.0692 12.0491C21.2193 11.9898 21.1951 11.7673 21.1538 11.5926C21.0591 11.1911 19.4245 9.57154 17.8895 8.8461C15.7978 7.85762 14.2576 7.90857 14.03 8.36417C14.4561 9.24035 16.4314 10.063 18.4943 10.9221C19.3744 11.2887 20.2705 11.6619 21.069 12.0487C21.069 12.0487 21.0688 12.0488 21.0687 12.0488Z" fill="url(#paint1_linear_2087_3875)"/>
<path fill-rule="evenodd" clip-rule="evenodd" d="M18.4143 20.8673C17.9913 20.7051 17.5135 20.5563 16.9702 20.4213C17.5495 19.3813 17.6711 17.8418 17.124 16.8684C16.3562 15.5024 15.3925 14.7753 13.1531 14.7753C11.9214 14.7753 8.60512 15.1916 8.54628 17.9692C8.54005 18.2607 8.54607 18.5278 8.5671 18.7734L14.6229 18.8174C13.8065 20.117 13.0419 21.0808 12.3724 21.8136C13.1762 22.0202 13.8394 22.1937 14.4483 22.353C15.0261 22.5042 15.555 22.6425 16.1085 22.7842C16.9435 22.1738 17.7284 21.5082 18.4143 20.8673Z" fill="url(#paint2_linear_2087_3875)"/>
<path d="M7.77321 18.488C8.02059 20.598 9.21579 21.425 11.658 21.6697C14.1002 21.9144 15.5011 21.7503 17.3661 21.9205C18.9238 22.0627 20.3147 22.8592 20.8307 22.5839C21.295 22.3362 21.0353 21.4413 20.4139 20.8671C19.6084 20.1229 18.4937 19.6054 16.5323 19.4218C16.9232 18.348 16.8137 16.8422 16.2065 16.023C15.3288 14.8386 13.7086 14.3031 11.658 14.5371C9.5156 14.7815 7.46274 15.8399 7.77321 18.488Z" fill="url(#paint3_linear_2087_3875)"/>
</g>
<defs>
<linearGradient id="paint0_linear_2087_3875" x1="12.1201" y1="15.6823" x2="26.4671" y2="19.7372" gradientUnits="userSpaceOnUse">
<stop stop-color="#8697FF"/>
<stop offset="1" stop-color="#ABB7FF"/>
</linearGradient>
<linearGradient id="paint1_linear_2087_3875" x1="24.0454" y1="15.4087" x2="13.6636" y2="5.03651" gradientUnits="userSpaceOnUse">
<stop stop-color="#8697FF"/>
<stop offset="1" stop-color="#5156D8" stop-opacity="0"/>
</linearGradient>
<linearGradient id="paint2_linear_2087_3875" x1="18.7022" y1="21.2299" x2="8.74632" y2="15.5252" gradientUnits="userSpaceOnUse">
<stop stop-color="#465EED"/>
<stop offset="1" stop-color="#8697FF" stop-opacity="0"/>
</linearGradient>
<linearGradient id="paint3_linear_2087_3875" x1="12.976" y1="15.5748" x2="19.7223" y2="24.1177" gradientUnits="userSpaceOnUse">
<stop stop-color="#8898FF"/>
<stop offset="0.983895" stop-color="#6277F1"/>
</linearGradient>
<clipPath id="clip0_2087_3875">
<rect width="32" height="32" rx="6" fill="white"/>
</clipPath>
</defs>
</svg>
